<svg xmlns="http://www.w3.org/2000/svg" xmlns:xlink="http://www.w3.org/1999/xlink" width="250" zoomAndPan="magnify" viewBox="0 0 187.5 52.499999" height="70" preserveAspectRatio="xMidYMid meet" version="1.0"><defs><g/><clipPath id="bc3af75cac"><path d="M 11 3.417969 L 58.945312 3.417969 L 58.945312 46.507812 L 11 46.507812 Z M 11 3.417969 " clip-rule="nonzero"/></clipPath><clipPath id="9146a7e3b6"><path d="M 3.328125 12 L 19 12 L 19 37 L 3.328125 37 Z M 3.328125 12 " clip-rule="nonzero"/></clipPath></defs><g clip-path="url(#bc3af75cac)"><path fill="#ffffff" d="M 13.476562 39.171875 L 41.554688 39.171875 C 42.859375 39.171875 43.960938 38.199219 44.140625 36.917969 L 47.5625 11.234375 C 47.5625 11.234375 47.5625 11.234375 47.5625 11.222656 C 48.136719 6.773438 51.953125 3.40625 56.445312 3.40625 L 57.121094 3.40625 C 58.035156 3.40625 58.777344 4.148438 58.777344 5.0625 C 58.777344 5.980469 58.035156 6.71875 57.121094 6.71875 L 56.445312 6.71875 C 53.609375 6.71875 51.203125 8.839844 50.839844 11.652344 C 50.839844 11.652344 50.839844 11.652344 50.839844 11.664062 L 47.417969 37.351562 C 47.03125 40.273438 44.515625 42.484375 41.554688 42.484375 L 40.5625 42.484375 C 40.53125 44.890625 38.585938 46.832031 36.167969 46.832031 C 33.753906 46.832031 31.808594 44.890625 31.777344 42.484375 L 24.910156 42.484375 C 24.878906 44.890625 22.933594 46.832031 20.519531 46.832031 C 18.101562 46.832031 16.15625 44.890625 16.125 42.484375 L 13.476562 42.484375 C 12.558594 42.484375 11.820312 41.742188 11.820312 40.828125 C 11.820312 39.910156 12.558594 39.171875 13.476562 39.171875 Z M 13.476562 39.171875 " fill-opacity="1" fill-rule="nonzero"/></g><path fill="#ffbd59" d="M 23.386719 11.011719 L 28.851562 10.351562 C 30.9375 13.683594 35.464844 19.425781 43.476562 22.847656 L 41.953125 34.226562 C 30.640625 27.703125 25.164062 15.683594 23.386719 11.011719 Z M 23.386719 11.011719 " fill-opacity="1" fill-rule="nonzero"/><path fill="#ffde59" d="M 20 11.421875 C 21.554688 15.859375 27.152344 29.390625 39.8125 36.851562 L 22.4375 36.851562 C 16.609375 26.664062 15.175781 15.527344 14.84375 12.039062 Z M 20 11.421875 " fill-opacity="1" fill-rule="nonzero"/><path fill="#ff914d" d="M 43.941406 19.425781 C 38.179688 16.742188 34.546875 12.757812 32.539062 9.910156 L 43.300781 8.617188 C 43.808594 8.550781 44.316406 8.738281 44.679688 9.101562 C 45.042969 9.46875 45.210938 9.976562 45.144531 10.484375 Z M 43.941406 19.425781 " fill-opacity="1" fill-rule="nonzero"/><g clip-path="url(#9146a7e3b6)"><path fill="#ffe47a" d="M 3.90625 13.851562 C 4.179688 13.496094 4.578125 13.277344 5.019531 13.21875 L 11.566406 12.4375 C 11.898438 16.132812 13.253906 26.652344 18.652344 36.851562 L 11.832031 36.851562 C 8.785156 36.851562 6.179688 34.578125 5.78125 31.554688 L 3.597656 15.085938 C 3.507812 14.644531 3.628906 14.203125 3.90625 13.851562 Z M 3.90625 13.851562 " fill-opacity="1" fill-rule="nonzero"/></g><g fill="#ffffff" fill-opacity="1"><g transform="translate(61.028306, 21.048429)"><g><path d="M 7.78125 0.34375 C 6.445312 0.34375 5.273438 0.101562 4.265625 -0.375 C 3.253906 -0.851562 2.457031 -1.539062 1.875 -2.4375 C 1.300781 -3.34375 1.015625 -4.414062 1.015625 -5.65625 L 4.84375 -5.65625 C 4.84375 -4.8125 5.132812 -4.1875 5.71875 -3.78125 C 6.3125 -3.375 6.988281 -3.171875 7.75 -3.171875 C 8.238281 -3.171875 8.691406 -3.25 9.109375 -3.40625 C 9.535156 -3.5625 9.882812 -3.789062 10.15625 -4.09375 C 10.4375 -4.40625 10.578125 -4.78125 10.578125 -5.21875 C 10.578125 -5.664062 10.414062 -6.015625 10.09375 -6.265625 C 9.78125 -6.523438 9.359375 -6.738281 8.828125 -6.90625 C 8.296875 -7.070312 7.710938 -7.226562 7.078125 -7.375 C 6.429688 -7.53125 5.765625 -7.710938 5.078125 -7.921875 C 4.398438 -8.140625 3.769531 -8.425781 3.1875 -8.78125 C 2.601562 -9.144531 2.132812 -9.628906 1.78125 -10.234375 C 1.4375 -10.835938 1.265625 -11.609375 1.265625 -12.546875 C 1.265625 -14.222656 1.832031 -15.515625 2.96875 -16.421875 C 4.113281 -17.328125 5.660156 -17.78125 7.609375 -17.78125 C 9.597656 -17.78125 11.140625 -17.273438 12.234375 -16.265625 C 13.335938 -15.265625 13.890625 -13.898438 13.890625 -12.171875 L 10.15625 -12.171875 C 10.15625 -12.921875 9.882812 -13.472656 9.34375 -13.828125 C 8.8125 -14.179688 8.195312 -14.359375 7.5 -14.359375 C 6.882812 -14.359375 6.316406 -14.222656 5.796875 -13.953125 C 5.285156 -13.691406 5.03125 -13.28125 5.03125 -12.71875 C 5.03125 -12.300781 5.179688 -11.972656 5.484375 -11.734375 C 5.796875 -11.492188 6.207031 -11.289062 6.71875 -11.125 C 7.226562 -10.96875 7.789062 -10.816406 8.40625 -10.671875 C 9.070312 -10.503906 9.753906 -10.304688 10.453125 -10.078125 C 11.148438 -9.859375 11.796875 -9.554688 12.390625 -9.171875 C 12.992188 -8.796875 13.476562 -8.289062 13.84375 -7.65625 C 14.21875 -7.019531 14.40625 -6.222656 14.40625 -5.265625 C 14.40625 -3.992188 14.101562 -2.941406 13.5 -2.109375 C 12.894531 -1.285156 12.09375 -0.671875 11.09375 -0.265625 C 10.09375 0.140625 8.988281 0.34375 7.78125 0.34375 Z M 7.78125 0.34375 "/></g></g></g><g fill="#ffffff" fill-opacity="1"><g transform="translate(76.456379, 21.048429)"><g><path d="M 9.453125 -13.796875 C 10.984375 -13.796875 12.1875 -13.285156 13.0625 -12.265625 C 13.945312 -11.253906 14.390625 -9.890625 14.390625 -8.171875 L 14.390625 0 L 10.75 0 L 10.75 -7.578125 C 10.75 -8.578125 10.566406 -9.328125 10.203125 -9.828125 C 9.835938 -10.335938 9.238281 -10.59375 8.40625 -10.59375 C 7.507812 -10.59375 6.78125 -10.28125 6.21875 -9.65625 C 5.664062 -9.039062 5.390625 -8.179688 5.390625 -7.078125 L 5.390625 0 L 1.75 0 L 1.75 -18.328125 L 5.390625 -18.328125 L 5.390625 -12.21875 C 5.898438 -12.695312 6.503906 -13.078125 7.203125 -13.359375 C 7.898438 -13.648438 8.648438 -13.796875 9.453125 -13.796875 Z M 9.453125 -13.796875 "/></g></g></g><g fill="#ffffff" fill-opacity="1"><g transform="translate(92.432786, 21.048429)"><g><path d="M 8.15625 0.375 C 6.757812 0.375 5.507812 0.0625 4.40625 -0.5625 C 3.3125 -1.1875 2.445312 -2.035156 1.8125 -3.109375 C 1.1875 -4.179688 0.875 -5.390625 0.875 -6.734375 C 0.875 -8.097656 1.1875 -9.316406 1.8125 -10.390625 C 2.445312 -11.460938 3.3125 -12.304688 4.40625 -12.921875 C 5.507812 -13.535156 6.757812 -13.84375 8.15625 -13.84375 C 9.53125 -13.84375 10.765625 -13.535156 11.859375 -12.921875 C 12.960938 -12.304688 13.828125 -11.460938 14.453125 -10.390625 C 15.085938 -9.316406 15.40625 -8.097656 15.40625 -6.734375 C 15.40625 -5.390625 15.085938 -4.179688 14.453125 -3.109375 C 13.828125 -2.035156 12.960938 -1.1875 11.859375 -0.5625 C 10.765625 0.0625 9.53125 0.375 8.15625 0.375 Z M 8.15625 -3.046875 C 9.195312 -3.046875 10.050781 -3.382812 10.71875 -4.0625 C 11.382812 -4.75 11.71875 -5.640625 11.71875 -6.734375 C 11.71875 -7.828125 11.382812 -8.710938 10.71875 -9.390625 C 10.050781 -10.078125 9.195312 -10.421875 8.15625 -10.421875 C 7.09375 -10.421875 6.226562 -10.078125 5.5625 -9.390625 C 4.894531 -8.710938 4.5625 -7.828125 4.5625 -6.734375 C 4.5625 -5.640625 4.894531 -4.75 5.5625 -4.0625 C 6.226562 -3.382812 7.09375 -3.046875 8.15625 -3.046875 Z M 8.15625 -3.046875 "/></g></g></g><g fill="#ffffff" fill-opacity="1"><g transform="translate(108.708283, 21.048429)"><g><path d="M 9.109375 -13.84375 C 10.453125 -13.84375 11.65625 -13.535156 12.71875 -12.921875 C 13.78125 -12.304688 14.617188 -11.460938 15.234375 -10.390625 C 15.847656 -9.316406 16.15625 -8.097656 16.15625 -6.734375 C 16.15625 -5.367188 15.847656 -4.148438 15.234375 -3.078125 C 14.617188 -2.003906 13.78125 -1.15625 12.71875 -0.53125 C 11.65625 0.09375 10.453125 0.40625 9.109375 0.40625 C 8.410156 0.40625 7.742188 0.300781 7.109375 0.09375 C 6.472656 -0.101562 5.898438 -0.375 5.390625 -0.71875 L 5.390625 4.859375 L 1.75 4.859375 L 1.75 -13.46875 L 4.171875 -13.46875 L 4.78125 -12.25 C 5.351562 -12.75 6.003906 -13.140625 6.734375 -13.421875 C 7.460938 -13.703125 8.253906 -13.84375 9.109375 -13.84375 Z M 8.796875 -3.046875 C 9.492188 -3.046875 10.117188 -3.207031 10.671875 -3.53125 C 11.234375 -3.851562 11.671875 -4.289062 11.984375 -4.84375 C 12.304688 -5.40625 12.46875 -6.035156 12.46875 -6.734375 C 12.46875 -7.429688 12.304688 -8.054688 11.984375 -8.609375 C 11.671875 -9.171875 11.234375 -9.613281 10.671875 -9.9375 C 10.117188 -10.257812 9.492188 -10.421875 8.796875 -10.421875 C 8.085938 -10.421875 7.457031 -10.257812 6.90625 -9.9375 C 6.351562 -9.613281 5.921875 -9.171875 5.609375 -8.609375 C 5.296875 -8.054688 5.140625 -7.429688 5.140625 -6.734375 C 5.140625 -6.035156 5.296875 -5.40625 5.609375 -4.84375 C 5.921875 -4.289062 6.351562 -3.851562 6.90625 -3.53125 C 7.457031 -3.207031 8.085938 -3.046875 8.796875 -3.046875 Z M 8.796875 -3.046875 "/></g></g></g><g fill="#ffffff" fill-opacity="1"><g transform="translate(125.706583, 21.048429)"><g><path d="M 9.109375 -13.84375 C 10.453125 -13.84375 11.65625 -13.535156 12.71875 -12.921875 C 13.78125 -12.304688 14.617188 -11.460938 15.234375 -10.390625 C 15.847656 -9.316406 16.15625 -8.097656 16.15625 -6.734375 C 16.15625 -5.367188 15.847656 -4.148438 15.234375 -3.078125 C 14.617188 -2.003906 13.78125 -1.15625 12.71875 -0.53125 C 11.65625 0.09375 10.453125 0.40625 9.109375 0.40625 C 8.410156 0.40625 7.742188 0.300781 7.109375 0.09375 C 6.472656 -0.101562 5.898438 -0.375 5.390625 -0.71875 L 5.390625 4.859375 L 1.75 4.859375 L 1.75 -13.46875 L 4.171875 -13.46875 L 4.78125 -12.25 C 5.351562 -12.75 6.003906 -13.140625 6.734375 -13.421875 C 7.460938 -13.703125 8.253906 -13.84375 9.109375 -13.84375 Z M 8.796875 -3.046875 C 9.492188 -3.046875 10.117188 -3.207031 10.671875 -3.53125 C 11.234375 -3.851562 11.671875 -4.289062 11.984375 -4.84375 C 12.304688 -5.40625 12.46875 -6.035156 12.46875 -6.734375 C 12.46875 -7.429688 12.304688 -8.054688 11.984375 -8.609375 C 11.671875 -9.171875 11.234375 -9.613281 10.671875 -9.9375 C 10.117188 -10.257812 9.492188 -10.421875 8.796875 -10.421875 C 8.085938 -10.421875 7.457031 -10.257812 6.90625 -9.9375 C 6.351562 -9.613281 5.921875 -9.171875 5.609375 -8.609375 C 5.296875 -8.054688 5.140625 -7.429688 5.140625 -6.734375 C 5.140625 -6.035156 5.296875 -5.40625 5.609375 -4.84375 C 5.921875 -4.289062 6.351562 -3.851562 6.90625 -3.53125 C 7.457031 -3.207031 8.085938 -3.046875 8.796875 -3.046875 Z M 8.796875 -3.046875 "/></g></g></g><g fill="#ffffff" fill-opacity="1"><g transform="translate(142.704883, 21.048429)"><g><path d="M 1.75 -15.265625 L 1.75 -18.65625 L 5.390625 -18.65625 L 5.390625 -15.265625 Z M 1.75 0 L 1.75 -13.46875 L 5.390625 -13.46875 L 5.390625 0 Z M 1.75 0 "/></g></g></g><g fill="#ffffff" fill-opacity="1"><g transform="translate(149.833203, 21.048429)"><g><path d="M 9.421875 -13.796875 C 10.953125 -13.796875 12.160156 -13.28125 13.046875 -12.25 C 13.941406 -11.226562 14.390625 -9.863281 14.390625 -8.15625 L 14.390625 0 L 10.75 0 L 10.75 -7.578125 C 10.75 -9.585938 9.96875 -10.59375 8.40625 -10.59375 C 7.46875 -10.59375 6.726562 -10.273438 6.1875 -9.640625 C 5.65625 -9.015625 5.390625 -8.160156 5.390625 -7.078125 L 5.390625 0 L 1.75 0 L 1.75 -13.46875 L 4.234375 -13.46875 L 4.96875 -11.796875 C 5.457031 -12.410156 6.09375 -12.894531 6.875 -13.25 C 7.664062 -13.613281 8.515625 -13.796875 9.421875 -13.796875 Z M 9.421875 -13.796875 "/></g></g></g><g fill="#ffffff" fill-opacity="1"><g transform="translate(165.80961, 21.048429)"><g><path d="M 12.625 -13.46875 L 14.984375 -13.46875 L 14.984375 -1.578125 C 14.984375 -0.160156 14.703125 1.050781 14.140625 2.0625 C 13.585938 3.082031 12.796875 3.863281 11.765625 4.40625 C 10.734375 4.957031 9.515625 5.234375 8.109375 5.234375 C 6.273438 5.234375 4.75 4.789062 3.53125 3.90625 C 2.3125 3.03125 1.550781 1.828125 1.25 0.296875 L 4.859375 0.296875 C 5.054688 0.898438 5.46875 1.351562 6.09375 1.65625 C 6.71875 1.96875 7.363281 2.125 8.03125 2.125 C 8.957031 2.125 9.75 1.84375 10.40625 1.28125 C 11.0625 0.726562 11.390625 -0.046875 11.390625 -1.046875 L 11.390625 -1.546875 C 10.859375 -1.160156 10.269531 -0.863281 9.625 -0.65625 C 8.976562 -0.445312 8.289062 -0.34375 7.5625 -0.34375 C 6.3125 -0.34375 5.175781 -0.640625 4.15625 -1.234375 C 3.144531 -1.835938 2.34375 -2.644531 1.75 -3.65625 C 1.164062 -4.675781 0.875 -5.816406 0.875 -7.078125 C 0.875 -8.347656 1.164062 -9.492188 1.75 -10.515625 C 2.34375 -11.535156 3.144531 -12.34375 4.15625 -12.9375 C 5.175781 -13.539062 6.3125 -13.84375 7.5625 -13.84375 C 8.4375 -13.84375 9.253906 -13.691406 10.015625 -13.390625 C 10.785156 -13.085938 11.460938 -12.664062 12.046875 -12.125 Z M 7.984375 -3.59375 C 8.972656 -3.59375 9.789062 -3.921875 10.4375 -4.578125 C 11.09375 -5.234375 11.421875 -6.066406 11.421875 -7.078125 C 11.421875 -8.078125 11.097656 -8.90625 10.453125 -9.5625 C 9.816406 -10.21875 8.992188 -10.546875 7.984375 -10.546875 C 7.003906 -10.546875 6.1875 -10.21875 5.53125 -9.5625 C 4.882812 -8.90625 4.5625 -8.078125 4.5625 -7.078125 C 4.5625 -6.066406 4.878906 -5.234375 5.515625 -4.578125 C 6.160156 -3.921875 6.984375 -3.59375 7.984375 -3.59375 Z M 7.984375 -3.59375 "/></g></g></g><g fill="#ffffff" fill-opacity="1"><g transform="translate(61.028306, 43.384914)"><g><path d="M 10 0.375 C 8.71875 0.375 7.523438 0.144531 6.421875 -0.3125 C 5.328125 -0.769531 4.375 -1.410156 3.5625 -2.234375 C 2.75 -3.054688 2.117188 -4.019531 1.671875 -5.125 C 1.222656 -6.226562 1 -7.421875 1 -8.703125 C 1 -9.992188 1.222656 -11.195312 1.671875 -12.3125 C 2.117188 -13.425781 2.75 -14.394531 3.5625 -15.21875 C 4.375 -16.039062 5.328125 -16.679688 6.421875 -17.140625 C 7.523438 -17.597656 8.71875 -17.828125 10 -17.828125 C 11.414062 -17.828125 12.710938 -17.535156 13.890625 -16.953125 C 15.066406 -16.367188 16.050781 -15.550781 16.84375 -14.5 C 17.644531 -13.457031 18.179688 -12.25 18.453125 -10.875 L 14.65625 -10.875 C 14.3125 -11.90625 13.722656 -12.722656 12.890625 -13.328125 C 12.054688 -13.929688 11.09375 -14.234375 10 -14.234375 C 9.019531 -14.234375 8.140625 -13.988281 7.359375 -13.5 C 6.578125 -13.007812 5.957031 -12.347656 5.5 -11.515625 C 5.039062 -10.691406 4.8125 -9.753906 4.8125 -8.703125 C 4.8125 -7.648438 5.039062 -6.710938 5.5 -5.890625 C 5.957031 -5.066406 6.578125 -4.414062 7.359375 -3.9375 C 8.140625 -3.457031 9.019531 -3.21875 10 -3.21875 C 11.144531 -3.21875 12.132812 -3.539062 12.96875 -4.1875 C 13.800781 -4.832031 14.375 -5.710938 14.6875 -6.828125 L 18.5 -6.828125 C 18.238281 -5.378906 17.710938 -4.113281 16.921875 -3.03125 C 16.128906 -1.957031 15.140625 -1.117188 13.953125 -0.515625 C 12.765625 0.078125 11.445312 0.375 10 0.375 Z M 10 0.375 "/></g></g></g><g fill="#ffffff" fill-opacity="1"><g transform="translate(80.244862, 43.384914)"><g><path d="M 14.8125 -6.78125 C 14.8125 -6.4375 14.785156 -6.078125 14.734375 -5.703125 L 4.5625 -5.703125 C 4.707031 -4.796875 5.070312 -4.097656 5.65625 -3.609375 C 6.238281 -3.117188 6.972656 -2.875 7.859375 -2.875 C 8.484375 -2.875 9.046875 -3.007812 9.546875 -3.28125 C 10.046875 -3.550781 10.429688 -3.925781 10.703125 -4.40625 L 14.53125 -4.40625 C 14.039062 -2.945312 13.195312 -1.785156 12 -0.921875 C 10.800781 -0.0546875 9.421875 0.375 7.859375 0.375 C 6.523438 0.375 5.328125 0.0625 4.265625 -0.5625 C 3.210938 -1.1875 2.382812 -2.035156 1.78125 -3.109375 C 1.175781 -4.179688 0.875 -5.390625 0.875 -6.734375 C 0.875 -8.078125 1.175781 -9.285156 1.78125 -10.359375 C 2.382812 -11.429688 3.210938 -12.28125 4.265625 -12.90625 C 5.328125 -13.53125 6.523438 -13.84375 7.859375 -13.84375 C 9.234375 -13.84375 10.441406 -13.519531 11.484375 -12.875 C 12.535156 -12.238281 13.351562 -11.390625 13.9375 -10.328125 C 14.519531 -9.265625 14.8125 -8.082031 14.8125 -6.78125 Z M 7.859375 -10.75 C 7.046875 -10.75 6.359375 -10.523438 5.796875 -10.078125 C 5.242188 -9.628906 4.863281 -9.003906 4.65625 -8.203125 L 11.171875 -8.203125 C 10.640625 -9.898438 9.535156 -10.75 7.859375 -10.75 Z M 7.859375 -10.75 "/></g></g></g><g fill="#ffffff" fill-opacity="1"><g transform="translate(95.897259, 43.384914)"><g><path d="M 9.421875 -13.796875 C 10.953125 -13.796875 12.160156 -13.28125 13.046875 -12.25 C 13.941406 -11.226562 14.390625 -9.863281 14.390625 -8.15625 L 14.390625 0 L 10.75 0 L 10.75 -7.578125 C 10.75 -9.585938 9.96875 -10.59375 8.40625 -10.59375 C 7.46875 -10.59375 6.726562 -10.273438 6.1875 -9.640625 C 5.65625 -9.015625 5.390625 -8.160156 5.390625 -7.078125 L 5.390625 0 L 1.75 0 L 1.75 -13.46875 L 4.234375 -13.46875 L 4.96875 -11.796875 C 5.457031 -12.410156 6.09375 -12.894531 6.875 -13.25 C 7.664062 -13.613281 8.515625 -13.796875 9.421875 -13.796875 Z M 9.421875 -13.796875 "/></g></g></g><g fill="#ffffff" fill-opacity="1"><g transform="translate(111.873666, 43.384914)"><g><path d="M 8.328125 -3.234375 L 9.96875 -3.234375 L 9.96875 0 L 7.40625 0 C 5.925781 0 4.757812 -0.425781 3.90625 -1.28125 C 3.050781 -2.132812 2.625 -3.3125 2.625 -4.8125 L 2.625 -10.546875 L 0.171875 -10.546875 L 0.171875 -11.328125 L 5.515625 -16.984375 L 6.1875 -16.984375 L 6.1875 -13.46875 L 9.90625 -13.46875 L 9.90625 -10.546875 L 6.265625 -10.546875 L 6.265625 -5.28125 C 6.265625 -4.632812 6.441406 -4.128906 6.796875 -3.765625 C 7.148438 -3.410156 7.660156 -3.234375 8.328125 -3.234375 Z M 8.328125 -3.234375 "/></g></g></g><g fill="#ffffff" fill-opacity="1"><g transform="translate(122.591068, 43.384914)"><g><path d="M 14.8125 -6.78125 C 14.8125 -6.4375 14.785156 -6.078125 14.734375 -5.703125 L 4.5625 -5.703125 C 4.707031 -4.796875 5.070312 -4.097656 5.65625 -3.609375 C 6.238281 -3.117188 6.972656 -2.875 7.859375 -2.875 C 8.484375 -2.875 9.046875 -3.007812 9.546875 -3.28125 C 10.046875 -3.550781 10.429688 -3.925781 10.703125 -4.40625 L 14.53125 -4.40625 C 14.039062 -2.945312 13.195312 -1.785156 12 -0.921875 C 10.800781 -0.0546875 9.421875 0.375 7.859375 0.375 C 6.523438 0.375 5.328125 0.0625 4.265625 -0.5625 C 3.210938 -1.1875 2.382812 -2.035156 1.78125 -3.109375 C 1.175781 -4.179688 0.875 -5.390625 0.875 -6.734375 C 0.875 -8.078125 1.175781 -9.285156 1.78125 -10.359375 C 2.382812 -11.429688 3.210938 -12.28125 4.265625 -12.90625 C 5.328125 -13.53125 6.523438 -13.84375 7.859375 -13.84375 C 9.234375 -13.84375 10.441406 -13.519531 11.484375 -12.875 C 12.535156 -12.238281 13.351562 -11.390625 13.9375 -10.328125 C 14.519531 -9.265625 14.8125 -8.082031 14.8125 -6.78125 Z M 7.859375 -10.75 C 7.046875 -10.75 6.359375 -10.523438 5.796875 -10.078125 C 5.242188 -9.628906 4.863281 -9.003906 4.65625 -8.203125 L 11.171875 -8.203125 C 10.640625 -9.898438 9.535156 -10.75 7.859375 -10.75 Z M 7.859375 -10.75 "/></g></g></g><g fill="#ffffff" fill-opacity="1"><g transform="translate(138.243465, 43.384914)"><g><path d="M 8.625 -13.546875 L 9.828125 -13.546875 L 9.828125 -10.09375 L 8.25 -10.09375 C 7.21875 -10.09375 6.484375 -9.851562 6.046875 -9.375 C 5.609375 -8.894531 5.390625 -8.101562 5.390625 -7 L 5.390625 0 L 1.75 0 L 1.75 -13.46875 L 4.09375 -13.46875 L 4.734375 -11.828125 C 5.648438 -12.972656 6.945312 -13.546875 8.625 -13.546875 Z M 8.625 -13.546875 "/></g></g></g></svg>